HIERARCHY
ROOT Root
{
  OFFSET -8.33935 11.8871 1.11795
  CHANNELS 6 Xposition Yposition Zposition Zrotation Xrotation Yrotation
  JOINT Spine
  {
    OFFSET 5.3114 0 0
    CHANNELS 3 Zrotation Xrotation Yrotation
    JOINT Spine1
    {
      OFFSET 2.79004 0 0
      CHANNELS 3 Zrotation Xrotation Yrotation
      JOINT Neck
      {
        OFFSET 1.43377 0 0
        CHANNELS 3 Zrotation Xrotation Yrotation
        JOINT Head
        {
          OFFSET 1.86043 0 0
          CHANNELS 3 Zrotation Xrotation Yrotation
          End Site
          {
            OFFSET 0 0 0
          }
        }
      }
      JOINT LeftArm
      {
        OFFSET 0.0387506 0 2.55754
        CHANNELS 3 Zrotation Xrotation Yrotation
        JOINT LeftForeArm
        {
          OFFSET 4.24845 0 0
          CHANNELS 3 Zrotation Xrotation Yrotation
          JOINT LeftHand
          {
            OFFSET 4.01008 0 0
            CHANNELS 3 Zrotation Xrotation Yrotation
            End Site
            {
              OFFSET 0 0 0
            }
          }
        }
      }
      JOINT RightArm
      {
        OFFSET 0.0387506 0 -2.55754
        CHANNELS 3 Zrotation Xrotation Yrotation
        JOINT RightForeArm
        {
          OFFSET -4.24845 0 0
          CHANNELS 3 Zrotation Xrotation Yrotation
          JOINT RightHand
          {
            OFFSET -4.01009 0 0
            CHANNELS 3 Zrotation Xrotation Yrotation
            End Site
            {
              OFFSET 0 0 0
            }
          }
        }
      }
    }
  }
  JOINT LeftUpLeg
  {
    OFFSET -1.23318 0 2.05692
    CHANNELS 3 Zrotation Xrotation Yrotation
    JOINT LeftLeg
    {
      OFFSET 5.46397 0 0
      CHANNELS 3 Zrotation Xrotation Yrotation
      JOINT LeftFoot
      {
        OFFSET 4.68898 0 0
        CHANNELS 3 Zrotation Xrotation Yrotation
        End Site
        {
          OFFSET 0 0 0
        }
      }
    }
  }
  JOINT RightUpLeg
  {
    OFFSET -1.24454 0 -2.05007
    CHANNELS 3 Zrotation Xrotation Yrotation
    JOINT RightLeg
    {
      OFFSET -5.46397 0 0
      CHANNELS 3 Zrotation Xrotation Yrotation
      JOINT RightFoot
      {
        OFFSET -4.68901 0 0
        CHANNELS 3 Zrotation Xrotation Yrotation
        End Site
        {
          OFFSET 0 0 0
        }
      }
    }
  }
}
MOTION
Frames:	19
Frame Time:	0.00833333
-8.33935 11.8871 1.11795 -0 90 90 9.69808e-018 1.34041e-020 0.158382 1.41245e-030 7.06225e-031 2.48481e-017 -7.30747e-017 7.61111e-019 -1.19349 3.40995e-017 1.65719e-019 0.556895 -2.12238e-008 -1.53545e-005 -90.1584 -2.50273e-005 -2.47192e-012 6.55612e-006 1.52588e-005 -6.98387e-015 174.455 180 -4.60993e-005 -89.8417 -5.49628e-005 -2.25992e-011 3.612e-005 1.52588e-005 6.98387e-015 174.455 -3.96058 -0.249603 -175.995 -8.59132 0.176503 -0.869947 4.62471 -0.0777798 176.868 177.974 -0.125995 -176.037 -4.39464 0.0840445 -0.877275 2.36563 -0.0333883 176.598 
-8.25137 11.8951 1.05599 -93.5712 69.0267 -178.972 -1.29398 -0.344036 0.255458 1.90435 -0.0658249 0.579729 -4.78525 -0.132348 -2.36178 8.94363 0.00731278 1.99006 6.22478 -2.93268 -112.258 7.78452 0.446545 4.44695 -0.283474 -3.23596 174.449 178.252 0.744079 -113.556 6.8981 0.282152 3.97015 0.473342 5.39024 174.439 -5.71114 -0.558972 -177.015 -14.507 -0.14231 -0.968416 11.442 -0.434831 177.288 171.699 -0.874988 -178.185 -11.6599 -0.181715 -0.98569 0.966165 2.62531 176.848 
-8.15981 11.9036 0.989002 -96.1769 46.8687 -178.9 -2.6618 -0.709752 0.35115 3.92135 -0.13602 1.19272 -9.85118 -0.269078 -3.59863 18.4116 0.023483 3.51184 9.28988 -11.3144 -134.883 15.9375 0.90939 9.14815 -0.585102 -6.65788 174.424 177.399 2.83394 -138.577 14.1837 0.581427 8.18744 0.97964 11.0585 174.368 -7.54879 -0.926336 -178.104 -20.7025 -0.478995 -1.0713 18.6813 -0.841417 177.747 164.996 -1.67246 179.54 -19.332 -0.462623 -1.10008 -0.543527 5.42561 177.105 
-8.07541 11.9113 0.932071 -98.3992 27.0839 -178.761 -3.87845 -1.03209 0.44967 5.71706 -0.197394 1.7392 -14.3719 -0.396045 -4.69847 26.8298 0.0218728 4.85638 6.76727 -21.1681 -155.235 23.1477 1.30742 13.344 -0.857475 -9.70759 174.384 178.032 5.24788 -160.934 20.578 0.830226 11.9115 1.45323 16.1694 174.253 -9.24531 -1.17861 -179.054 -26.3418 -0.779875 -1.16546 25.0924 -1.14955 178.128 158.979 -2.37147 177.514 -26.1935 -0.713178 -1.2026 -1.90114 7.94623 177.331 
-8.00895 11.9167 0.900287 -99.8646 13.2287 -178.59 -4.71927 -1.24598 0.555212 6.95666 -0.236797 2.11936 -17.5188 -0.499429 -5.45569 32.6264 -0.0239665 5.75779 1.20123 -27.8857 -170.588 28.1451 1.57401 16.2733 -1.04974 -11.8271 174.346 179.398 6.95737 -176.635 24.8303 0.96937 14.4014 1.81371 19.8879 174.137 -10.5586 -1.1427 -179.658 -30.5883 -0.991288 -1.23772 29.4195 -1.2111 178.317 154.797 -2.82866 176.112 -31.0264 -0.887896 -1.27536 -2.83136 9.76536 177.489 
-7.96758 11.919 0.903763 -100.398 7.66712 -178.46 -5.03489 -1.31206 0.673678 7.41518 -0.246868 2.26258 -18.7314 -0.571335 -5.72927 34.7462 -0.132902 6.03827 -1.90037 -30.275 -177.106 30.1021 1.6768 17.425 -1.12615 -12.6597 174.329 -179.807 7.93962 177.079 26.0817 0.959887 15.1409 1.99409 21.6853 174.07 -11.3079 -0.683495 -179.774 -32.8491 -1.07661 -1.27851 30.8174 -0.89138 178.218 153.24 -2.9496 175.587 -33.017 -0.956379 -1.30638 -3.14739 10.5987 177.554 
-7.94413 11.9192 0.932421 -100.314 8.02868 -178.389 -4.97591 -1.27237 0.801212 7.31559 -0.235938 2.23675 -18.5612 -0.620889 -5.65756 34.2384 -0.286993 5.87528 -1.43142 -30.207 -176.501 29.9015 1.66877 17.3064 -1.11819 -12.5726 174.331 -179.848 8.60699 177.569 25.196 0.846547 14.631 2.03717 22.1095 174.054 -11.6603 0.0770201 -179.542 -33.6928 -1.07192 -1.29685 30.1283 -0.301175 177.914 153.569 -2.83201 175.688 -32.9774 -0.948989 -1.30758 -3.01935 10.7278 177.553 
-7.92787 11.9184 0.97107 -99.9959 10.767 -178.336 -4.76767 -1.18398 0.927364 6.99482 -0.214405 2.14986 -17.8469 -0.659926 -5.45403 32.6896 -0.457326 5.53584 0.493673 -29.1543 -173.041 28.8458 1.61799 16.6841 -1.07421 -12.0931 174.341 179.672 9.05797 -179.185 23.5123 0.70018 13.6565 2.01982 21.9415 174.062 -11.8911 0.925971 -179.175 -34.0257 -1.0326 -1.30742 28.6228 0.339427 177.557 154.645 -2.62311 176.039 -32.1276 -0.911386 -1.29692 -2.70536 10.5798 177.525 
-7.90807 11.918 1.00452 -99.805 12.3365 -178.263 -4.63496 -1.10393 1.0417 6.78974 -0.192671 2.10992 -17.4278 -0.700208 -5.33216 31.689 -0.614689 5.28697 1.61001 -28.5434 -171.065 28.2363 1.59221 16.3245 -1.04261 -11.7488 174.347 179.375 9.36698 -177.231 22.3769 0.593871 13.0017 2.02183 21.962 174.062 -12.2619 1.65053 -178.883 -34.754 -1.014 -1.32489 27.5611 0.810669 177.3 155.332 -2.47032 176.265 -31.6879 -0.889227 -1.29241 -2.46448 10.5817 177.507 
-7.88314 11.9182 1.03034 -99.7963 12.1458 -178.163 -4.61425 -1.04586 1.1341 6.76023 -0.172976 2.14685 -17.4517 -0.741907 -5.33597 31.5114 -0.753957 5.17016 1.67647 -28.6878 -171.237 28.2895 1.60289 16.3544 -1.02903 -11.6038 174.35 179.405 9.56871 -177.237 22.0223 0.54255 12.7993 2.0574 22.3091 174.049 -12.8095 2.22183 -178.705 -36.0468 -1.02566 -1.35162 27.1264 1.0848 177.169 155.432 -2.40062 176.308 -31.8764 -0.890347 -1.29743 -2.33441 10.8134 177.505 
-7.85836 11.9183 1.0561 -99.7899 11.968 -178.055 -4.59348 -0.979892 1.21258 6.73658 -0.149952 2.20268 -17.4963 -0.779728 -5.35591 31.3589 -0.889815 5.05292 1.72609 -28.8227 -171.433 28.3544 1.6159 16.3907 -1.01017 -11.4023 174.354 179.445 9.60808 -177.181 21.7731 0.508886 12.6563 2.08641 22.5897 174.037 -13.4044 2.74405 -178.534 -37.445 -1.0398 -1.38028 26.6944 1.26885 177.088 155.517 -2.33944 176.354 -32.0783 -0.891841 -1.30285 -2.18752 11.0583 177.499 
-7.83339 11.9183 1.08158 -99.7869 11.8038 -177.949 -4.57439 -0.897728 1.2939 6.71117 -0.122592 2.25355 -17.5464 -0.817219 -5.3751 31.2142 -1.02253 4.94118 1.77636 -28.9575 -171.628 28.4344 1.63205 16.4356 -0.99055 -11.1918 174.359 179.504 9.50013 -177.094 21.6216 0.48985 12.569 2.10705 22.788 174.028 -14.0465 3.2042 -178.367 -38.9126 -1.05582 -1.41111 26.3079 1.34557 177.055 155.603 -2.28249 176.394 -32.2636 -0.893262 -1.30788 -2.03435 11.2994 177.492 
-7.80785 11.9182 1.10655 -99.7884 11.6542 -177.859 -4.55884 -0.791098 1.39479 6.67638 -0.0898859 2.27558 -17.5869 -0.857933 -5.3767 31.0602 -1.15237 4.8409 1.84493 -29.1016 -171.792 28.533 1.65215 16.4908 -0.974698 -11.0198 174.362 179.59 9.25993 -177.007 21.5599 0.48238 12.5333 2.11753 22.8884 174.024 -14.7353 3.58929 -178.202 -40.4137 -1.07314 -1.44431 26.0101 1.29769 177.07 155.708 -2.22541 176.417 -32.4029 -0.894164 -1.31173 -1.88542 11.5195 177.484 
-7.782 11.9181 1.13099 -99.7942 11.5189 -177.789 -4.54199 -0.647865 1.51961 6.62111 -0.0491268 2.25903 -17.6188 -0.906664 -5.35279 30.9026 -1.2854 4.75506 1.9436 -29.2717 -171.909 28.6591 1.67799 16.5613 -0.964418 -10.9037 174.364 179.725 8.86781 -176.936 21.6058 0.488247 12.5597 2.11491 22.8632 174.025 -15.479 3.88979 -178.033 -41.9764 -1.0924 -1.48089 25.8151 1.08617 177.145 155.835 -2.16272 176.421 -32.4862 -0.894486 -1.31392 -1.74392 11.7162 177.475 
-7.75592 11.918 1.15499 -99.8041 11.3977 -177.731 -4.52506 -0.475764 1.65946 6.55252 -0.00166213 2.21776 -17.6485 -0.96024 -5.31352 30.7471 -1.41946 4.68002 2.06086 -29.4582 -171.994 28.8082 1.7086 16.6447 -0.957085 -10.8166 174.366 179.898 8.3237 -176.86 21.7569 0.508229 12.6465 2.10093 22.7286 174.031 -16.2738 4.11467 -177.863 -43.6074 -1.11364 -1.52041 25.7 0.731637 177.278 155.976 -2.09818 176.411 -32.53 -0.894446 -1.31495 -1.60408 11.898 177.465 
-7.72897 11.9178 1.17858 -99.8194 11.2913 -177.682 -4.51911 -0.296328 1.81126 6.49044 0.0474334 2.1633 -17.6686 -1.01027 -5.26905 30.5772 -1.5425 4.61179 2.17944 -29.631 -172.078 28.9636 1.74062 16.7317 -0.950564 -10.7397 174.367 -179.925 7.67203 -176.762 21.975 0.537753 12.7716 2.08083 22.5345 174.039 -17.1018 4.27869 -177.702 -45.2383 -1.13541 -1.56097 25.6533 0.306342 177.439 156.129 -2.04137 176.391 -32.5441 -0.894018 -1.31553 -1.4631 12.0637 177.453 
-7.70055 11.9176 1.20177 -99.8416 11.2002 -177.637 -4.53492 -0.131086 1.97191 6.45467 0.093083 2.10719 -17.6718 -1.04835 -5.22954 30.376 -1.64246 4.54638 2.28193 -29.7604 -172.186 29.1086 1.77072 16.8127 -0.94272 -10.6541 174.369 -179.778 6.95731 -176.622 22.2221 0.572255 12.913 2.05984 22.331 174.047 -17.9457 4.39661 -177.559 -46.8006 -1.15624 -1.60064 25.6622 -0.11739 177.6 156.292 -2.00189 176.364 -32.5381 -0.893175 -1.31633 -1.31817 12.2123 177.441 
-7.67017 11.9174 1.22434 -99.8766 11.1233 -177.602 -4.58776 0.0110036 2.15888 6.45885 0.13297 2.04396 -17.6456 -1.06902 -5.20125 30.1207 -1.71051 4.4846 2.36315 -29.835 -172.331 29.2455 1.79945 16.8892 -0.931333 -10.5388 174.371 -179.66 6.15763 -176.431 22.5129 0.613858 13.0793 2.0392 22.1301 174.055 -18.8177 4.45764 -177.428 -48.304 -1.17576 -1.63989 25.7471 -0.524461 177.755 156.469 -1.97421 176.328 -32.4994 -0.891754 -1.31756 -1.17038 12.3309 177.426 
-7.63828 11.9171 1.24634 -99.9218 11.0607 -177.578 -4.66786 0.142484 2.36773 6.48965 0.170124 1.97032 -17.5975 -1.07782 -5.17756 29.8264 -1.75493 4.42793 2.43288 -29.8718 -172.495 29.381 1.82813 16.9648 -0.918097 -10.4093 174.373 -179.553 5.26072 -176.199 22.8591 0.663826 13.2772 2.01621 21.9055 174.064 -19.7207 4.45885 -177.306 -49.7758 -1.19474 -1.6794 25.9075 -0.952059 177.919 156.66 -1.95591 176.281 -32.428 -0.889823 -1.31883 -1.02064 12.4242 177.41 
